<?xml version="1.0" encoding="UTF-8" standalone="no"?>
<!--part of the matt icon theme by sixsixfive released under CC0 (https://creativecommons.org/publicdomain/zero/1.0/) on openclipart-->

<svg
   xmlns:dc="http://purl.org/dc/elements/1.1/"
   xmlns:cc="http://creativecommons.org/ns#"
   xmlns:rdf="http://www.w3.org/1999/02/22-rdf-syntax-ns#"
   xmlns:svg="http://www.w3.org/2000/svg"
   xmlns="http://www.w3.org/2000/svg"
   xmlns:xlink="http://www.w3.org/1999/xlink"
   xmlns:sodipodi="http://sodipodi.sourceforge.net/DTD/sodipodi-0.dtd"
   xmlns:inkscape="http://www.inkscape.org/namespaces/inkscape"
   viewBox="0 0 128 128"
   id="svg2"
   version="1.1"
   inkscape:version="0.91 r13725"
   sodipodi:docname="createinvoice.svg">
  <metadata
     id="metadata51">
    <rdf:RDF>
      <cc:Work
         rdf:about="">
        <dc:format>image/svg+xml</dc:format>
        <dc:type
           rdf:resource="http://purl.org/dc/dcmitype/StillImage" />
        <dc:title />
      </cc:Work>
    </rdf:RDF>
  </metadata>
  <sodipodi:namedview
     pagecolor="#ffffff"
     bordercolor="#666666"
     borderopacity="1"
     objecttolerance="10"
     gridtolerance="10"
     guidetolerance="10"
     inkscape:pageopacity="0"
     inkscape:pageshadow="2"
     inkscape:window-width="1600"
     inkscape:window-height="845"
     id="namedview49"
     showgrid="false"
     inkscape:zoom="3.6875"
     inkscape:cx="5.4237293"
     inkscape:cy="64"
     inkscape:window-x="0"
     inkscape:window-y="0"
     inkscape:window-maximized="1"
     inkscape:current-layer="svg2" />
  <defs
     id="0">
    <linearGradient
       id="3">
      <stop
         id="T"
         stop-color="#eee" />
      <stop
         id="U"
         offset="1"
         stop-color="#d2d2d2" />
    </linearGradient>
    <linearGradient
       id="4">
      <stop
         id="V" />
      <stop
         id="W"
         offset="1"
         stop-opacity="0.536" />
    </linearGradient>
    <linearGradient
       id="5">
      <stop
         id="X" />
      <stop
         id="Y"
         offset="1"
         stop-color="#ddd"
         stop-opacity="0" />
    </linearGradient>
    <filter
       x="-0.147"
       y="-0.145"
       width="1.294"
       height="1.29"
       color-interpolation-filters="sRGB"
       id="6">
      <feGaussianBlur
         stdDeviation="1.81881"
         id="Z" />
    </filter>
    <filter
       color-interpolation-filters="sRGB"
       id="7">
      <feGaussianBlur
         stdDeviation="2.58594"
         id="a" />
    </filter>
    <radialGradient
       cx="81.79"
       cy="100.32"
       r="44.42"
       id="8"
       xlink:href="#3"
       gradientUnits="userSpaceOnUse"
       gradientTransform="matrix(1.7525622,-1.32392,1.5554175,1.8475619,-237.33673,33.898462)" />
    <radialGradient
       cx="89.51"
       cy="22.254"
       r="18.279"
       id="9"
       xlink:href="#4"
       gradientUnits="userSpaceOnUse"
       gradientTransform="matrix(1,0,0,0.97467889,0,0.43910718)" />
    <linearGradient
       x1="98.33"
       y1="14.793"
       x2="86.82"
       y2="25.1"
       id="A"
       xlink:href="#5"
       gradientUnits="userSpaceOnUse"
       gradientTransform="matrix(0.84639171,0,0,0.8017548,7.4330427,14.176314)" />
    <linearGradient
       y1="22.88"
       x2="0"
       y2="101.01"
       id="B"
       xlink:href="#C"
       gradientUnits="userSpaceOnUse" />
    <linearGradient
       id="C">
      <stop
         id="b"
         stop-color="#f0ff80" />
      <stop
         id="c"
         offset="1"
         stop-color="#e3ad00" />
    </linearGradient>
    <linearGradient
       y1="8.211"
       x2="0"
       y2="121.04"
       id="D"
       xlink:href="#H"
       gradientUnits="userSpaceOnUse" />
    <radialGradient
       cx="63.21"
       cy="-8.84"
       r="54.27"
       id="E"
       xlink:href="#I"
       gradientUnits="userSpaceOnUse"
       gradientTransform="matrix(1.2606553,0,0,0.9847417,-16.476307,0.9860661)" />
    <radialGradient
       cx="63.894"
       cy="117.35"
       r="53.91"
       id="F"
       xlink:href="#G"
       gradientUnits="userSpaceOnUse"
       gradientTransform="matrix(1,0,0,0.08641975,0,107.20963)" />
    <linearGradient
       id="G">
      <stop
         id="d" />
      <stop
         id="e"
         offset="1"
         stop-opacity="0" />
    </linearGradient>
    <linearGradient
       id="H">
      <stop
         id="f"
         stop-color="#888" />
      <stop
         id="g"
         offset="1"
         stop-color="#494949" />
    </linearGradient>
    <linearGradient
       id="I">
      <stop
         id="h"
         stop-color="#eee" />
      <stop
         id="i"
         offset="1"
         stop-color="#eee"
         stop-opacity="0" />
    </linearGradient>
    <filter
       inkscape:collect="always"
       style="color-interpolation-filters:sRGB"
       id="filter5648"
       x="-0.05883483"
       width="1.1176697"
       y="-1.1509127"
       height="3.3018253">
      <feGaussianBlur
         inkscape:collect="always"
         stdDeviation="1.3163047"
         id="feGaussianBlur5650" />
    </filter>
    <filter
       inkscape:collect="always"
       style="color-interpolation-filters:sRGB"
       id="filter5652"
       x="-0.058246482"
       width="1.116493"
       y="-0.72412909"
       height="2.4482582">
      <feGaussianBlur
         inkscape:collect="always"
         stdDeviation="1.3163047"
         id="feGaussianBlur5654" />
    </filter>
    <filter
       inkscape:collect="always"
       style="color-interpolation-filters:sRGB"
       id="filter5656"
       x="-0.053905784"
       width="1.1078116"
       y="-2.7691505"
       height="6.538301">
      <feGaussianBlur
         inkscape:collect="always"
         stdDeviation="1.3163047"
         id="feGaussianBlur5658" />
    </filter>
  </defs>
  <path
     style="opacity:0.80899999;filter:url(#7)"
     inkscape:connector-curvature="0"
     id="J"
     transform="matrix(0.84639171,0,0,0.80516418,7.4330427,13.738804)"
     d="m 20.09375,4.1185004 0,117.9999996 88.84375,0 0,-86.15625 -0.59375,-0.625 c 0.21045,0.144391 0.41688,0.302162 0.625,0.4375 L 78.09375,4.1497504 c 0.05654,0.079597 0.09993,0.1703021 0.15625,0.25 l -0.25,-0.28125 -57.90625,0 z" />
  <path
     inkscape:connector-curvature="0"
     style="fill:url(#8)"
     id="K"
     d="m 24.440226,16.356085 0,94.607075 75.196616,0 0,-69.076195 -26.185246,-25.53088 -49.01137,0 z" />
  <path
     inkscape:connector-curvature="0"
     style="opacity:0.50499998;fill:url(#9);filter:url(#6)"
     id="L"
     transform="matrix(0.8892178,0,0,0.92203451,2.7239807,13.962072)"
     d="m 81.698039,28.309502 0.135161,-8.351 C 81.901124,13.359407 80.956142,8.4107397 77.785779,3.9471419 L 80.362343,3.9159389 107.86271,29.53084 c -4.06802,-2.645393 -9.621189,-0.791242 -16.861906,-1.025606 l -9.302765,-0.195732 z" />
  <path
     style="fill:#eeeeee"
     inkscape:connector-curvature="0"
     id="M"
     d="m 78.459184,35.645849 0.114399,-6.695455 c 0.05749,-5.290855 -2.35551,-8.982972 -5.038879,-12.561683 l 26.137618,25.357225 c -3.44314,-2.120957 -7.21087,-5.755255 -13.339355,-5.943157 l -7.873783,-0.15693 z" />
  <path
     inkscape:connector-curvature="0"
     style="fill:url(#A)"
     id="N"
     d="m 78.459184,35.645849 0.114399,-6.695455 c 0.05749,-5.290855 -2.35551,-8.982972 -5.038879,-12.561683 l 26.137618,25.357225 c -3.44314,-2.120957 -7.21087,-5.755255 -13.339355,-5.943157 l -7.873783,-0.15693 z" />
  <path
     style="fill:none;fill-rule:evenodd;stroke:#000000;stroke-width:0.85175204px;stroke-linecap:butt;stroke-linejoin:miter;stroke-opacity:1"
     d="m 31.199325,24.768132 -0.71198,79.358048 61.942197,0.22481 0.9493,-66.094239 -62.65417,-0.44962 z"
     id="path4184"
     inkscape:connector-curvature="0" />
  <path
     style="fill:none;fill-rule:evenodd;stroke:#000000;stroke-width:0.85175204px;stroke-linecap:butt;stroke-linejoin:miter;stroke-opacity:1"
     d="m 30.961998,51.29575 c 61.942194,0.22481 61.942194,0.22481 61.942194,0.22481 l 0.23733,21.35698 -62.654177,-0.44962 0.474653,-46.985357 46.99063,-0.22481 -47.939935,0 z"
     id="path4186"
     inkscape:connector-curvature="0" />
  <path
     style="fill:#666666;fill-rule:evenodd;stroke:#000000;stroke-width:0.93692726;stroke-linecap:butt;stroke-linejoin:miter;stroke-miterlimit:4;stroke-dasharray:none;stroke-opacity:1"
     d="M 61.814432,25.442563 61.339779,72.20311"
     id="path4188"
     inkscape:connector-curvature="0" />
  <path
     style="opacity:0.39200003;fill:none;fill-rule:evenodd;stroke:#000000;stroke-width:6.30000019;stroke-linecap:butt;stroke-linejoin:miter;stroke-miterlimit:4;stroke-dasharray:none;stroke-opacity:1;filter:url(#filter5656)"
     d="m 35.79661,81.898305 c 2.440678,0 4.881356,0 7.322034,0 0.451977,0 0.903955,0 1.355932,0 0.180791,0 0.36698,0.04385 0.542373,0 0.196096,-0.04902 0.346278,-0.222163 0.542373,-0.271186 0.175393,-0.04385 0.361582,0 0.542373,0 0.542373,0 1.084746,0 1.627119,0 0.180791,0 0.370859,0.05717 0.542372,0 0.121279,-0.04043 0.149909,-0.230761 0.271187,-0.271187 0.158665,-0.05289 1.394351,0 1.627119,0 1.355932,0 2.711864,0 4.067796,0 0.542373,0 1.084746,0 1.627119,0 0.271186,0 0.556289,0.08576 0.813559,0 0.121278,-0.04043 0.149908,-0.23076 0.271187,-0.271186 0.25727,-0.08576 0.542372,0 0.813559,0 0.451977,0 0.903955,0 1.355932,0 1.536723,0 3.073446,0 4.61017,0 1.717514,0 3.435028,0 5.152542,0 0.542373,0 1.084746,0 1.627119,0 0.271186,0 0.556289,-0.08576 0.813559,0 0.121278,0.04043 0.149908,0.23076 0.271186,0.271186 0.12414,0.04138 1.204568,0 1.355933,0 0.0904,0 0.185429,-0.02858 0.271186,0 0.191758,0.06392 0.350615,0.207267 0.542373,0.271187 0.08576,0.02859 0.180791,0 0.271186,0 0.151365,0 1.231793,-0.04138 1.355933,0 0.121278,0.04043 0.156844,0.214015 0.271186,0.271186 0.170447,0.08522 0.914299,-0.08522 1.084746,0 0.114342,0.05717 0.156844,0.214015 0.271186,0.271187 0.08085,0.04043 0.180791,0 0.271187,0 0.0904,0 0.180791,0 0.271186,0 0.542373,0 1.084746,0 1.627119,0 1.175141,0 2.350282,0 3.525423,0 0.06577,0 0.804838,0.0087 0.81356,0 0.06392,-0.06392 -0.06392,-0.207268 0,-0.271187 0.01091,-0.01091 0.985156,0 1.084746,0 0.99435,0 1.9887,0 2.98305,0 0.0904,0 0.180791,0 0.271187,0 0.0904,0 0.207267,0.06392 0.271186,0 0.06392,-0.06392 -0.06392,-0.207267 0,-0.271186 0.06392,-0.06392 0.180791,0 0.271187,0 0.0904,0 0.180791,0 0.271186,0 0.723164,0 1.446328,0 2.169492,0 0.122131,0 0.731028,0.04127 0.813559,0 0.670211,-0.335106 -0.09361,-0.271187 0.542373,-0.271187 0.632768,0 1.265537,0 1.898305,0 0.09039,0 0.207267,0.06392 0.271186,0 0.06392,-0.06392 0,-0.180791 0,-0.271186"
     id="path4190"
     inkscape:connector-curvature="0"
     transform="matrix(0.87514115,0,0,0.82898806,6.0427237,11.504323)" />
  <path
     style="opacity:0.39200003;fill:none;fill-rule:evenodd;stroke:#000000;stroke-width:6.30000019;stroke-linecap:butt;stroke-linejoin:miter;stroke-miterlimit:4;stroke-dasharray:none;stroke-opacity:1;filter:url(#filter5652)"
     d="m 37.423729,92.20339 c 0.542373,0.0904 1.090358,0.151906 1.627118,0.271186 0.558098,0.124022 1.077405,0.385312 1.627119,0.542373 0.35837,0.102391 0.726376,0.168795 1.084746,0.271187 0.274857,0.07853 0.538702,0.192655 0.813559,0.271186 0.35837,0.102391 0.731162,0.153325 1.084746,0.271186 0.461814,0.153938 0.894118,0.388435 1.355932,0.542373 0.353584,0.117862 0.723164,0.180791 1.084746,0.271187 1.457305,0.364326 0.712186,0.178046 2.169491,0.542373 0.361582,0.0904 0.723164,0.180791 1.084746,0.271186 0.361582,0.0904 0.714914,0.224958 1.084746,0.271187 0.35879,0.04485 0.723164,0 1.084746,0 0.361582,0.0904 0.715781,0.218477 1.084746,0.271186 0.26846,0.03835 0.542372,0 0.813559,0 0.632768,0 1.265537,0 1.898305,0 0.271186,0 0.545098,-0.03835 0.813559,0 0.368964,0.05271 0.715782,0.218477 1.084746,0.271186 0.268461,0.03835 0.542373,0 0.813559,0 0.271187,0 0.542373,0 0.81356,0 1.084745,0 2.169491,0 3.254237,0 1.066667,0 0.560452,0 1.627119,0 0.271186,0 0.546062,0.04458 0.813559,0 0.281966,-0.04699 0.531593,-0.224192 0.813559,-0.271186 0.445828,-0.0743 0.912732,0.08864 1.355932,0 0.280305,-0.05606 0.531594,-0.224192 0.81356,-0.271186 0.534993,-0.08917 1.092125,0.08916 1.627118,0 0.281967,-0.04699 0.531593,-0.224193 0.81356,-0.271187 0.267496,-0.04458 0.546062,0.04458 0.813559,0 0.281966,-0.04699 0.533255,-0.215125 0.813559,-0.271186 0.17728,-0.03546 0.365093,0.03546 0.542373,0 0.280305,-0.05606 0.531593,-0.224192 0.81356,-0.271187 0.267496,-0.04458 0.542372,0 0.813559,0 0.271186,-0.0904 0.533255,-0.215125 0.813559,-0.271186 0.17728,-0.03546 0.37086,0.05717 0.542373,0 0.121278,-0.04043 0.149908,-0.230761 0.271187,-0.271187 0.343026,-0.114342 0.730185,0.07091 1.084745,0 0.280305,-0.05606 0.533255,-0.215125 0.81356,-0.271186 0.17728,-0.03546 0.36698,0.04385 0.542373,0 1.408154,-0.352039 -0.289504,-0.271187 1.084745,-0.271187 0.451978,0 0.912732,0.08864 1.355932,0 0.198206,-0.03964 0.346278,-0.222162 0.542373,-0.271186 0.26309,-0.06577 0.55629,0.08576 0.81356,0 0.191757,-0.06392 0.346277,-0.222163 0.542373,-0.271186 0.213319,-0.05333 1.345105,0 1.627118,0 0.0904,0 0.190334,0.04043 0.271187,0 0.114342,-0.05717 0.149908,-0.230761 0.271186,-0.271187 0.370276,-0.123425 1.256843,0.123426 1.627119,0 0.121278,-0.04043 0.149908,-0.23076 0.271186,-0.271186 0.149971,-0.04999 1.35402,0 1.627119,0 0.0904,0 0.180791,0 0.271186,0 0.0904,0 0.190335,0.04043 0.271187,0 0.114342,-0.05717 0.156844,-0.214016 0.271186,-0.271187 0.107523,-0.05376 0.758119,0.05544 0.813559,0 0.361582,-0.361582 -0.451977,-0.271186 0.271187,-0.271186 0.06577,0 0.804838,0.0087 0.813559,0 0.06392,-0.06392 -0.06392,-0.207267 0,-0.271187 0.0087,-0.0087 0.74779,0 0.81356,0 0.0904,0 0.361581,0 0.271186,0 -0.180791,0 -0.361582,0 -0.542373,0"
     id="path4192"
     inkscape:connector-curvature="0"
     transform="matrix(0.87514115,0,0,0.82898806,6.0427237,11.504323)" />
  <path
     style="opacity:0.39200003;fill:none;fill-rule:evenodd;stroke:#000000;stroke-width:6.30000019;stroke-linecap:butt;stroke-linejoin:miter;stroke-miterlimit:4;stroke-dasharray:none;stroke-opacity:1;filter:url(#filter5648)"
     d="m 37.423729,101.9661 c 0.374529,0.56526 1.141619,0.14981 1.627118,0.27119 0.196096,0.049 0.344168,0.23154 0.542373,0.27118 0.265921,0.0532 0.546063,-0.0446 0.81356,0 0.281966,0.047 0.530576,0.23076 0.813559,0.27119 0.357948,0.0511 0.726798,-0.0511 1.084746,0 0.282982,0.0404 0.531593,0.22419 0.813559,0.27119 0.624159,0.10402 1.271896,-0.0895 1.898305,0 0.282983,0.0404 0.531593,0.22419 0.813559,0.27118 0.534994,0.0892 1.090197,-0.0767 1.627119,0 0.368964,0.0527 0.715782,0.21848 1.084746,0.27119 0.268461,0.0383 0.542373,0 0.813559,0 0.361582,0 0.723164,0 1.084746,0 0.271186,0 0.546063,-0.0446 0.813559,0 2.141659,0.35694 -0.488174,0.27119 1.627119,0.27119 0.271186,0 0.542373,0 0.813559,0 0.271187,0 0.546063,-0.0446 0.81356,0 0.281966,0.047 0.531593,0.22419 0.813559,0.27118 0.534993,0.0892 1.092125,-0.0892 1.627119,0 0.281966,0.047 0.531593,0.2242 0.813559,0.27119 0.73604,0.12267 1.704638,-0.12267 2.440678,0 0.281966,0.047 0.531593,0.22419 0.813559,0.27119 0.445828,0.0743 0.903955,0 1.355932,0 0.723164,0 1.446328,0 2.169492,0 1.265537,0 2.531073,0 3.79661,0 0.282014,0 1.413799,0.0533 1.627119,0 0.196095,-0.049 0.344167,-0.23155 0.542373,-0.27119 0.26592,-0.0532 0.542372,0 0.813559,0 0.723164,0 1.446328,0 2.169491,0 0.271187,0 0.54764,0.0532 0.81356,0 0.198205,-0.0396 0.346277,-0.22216 0.542373,-0.27119 0.21332,-0.0533 1.345105,0 1.627118,0 0.542373,0 1.084746,0 1.627119,0 0.180791,0 0.36698,0.0439 0.542373,0 0.196095,-0.049 0.350615,-0.20726 0.542373,-0.27118 0.146768,-0.0489 0.992359,0 1.084745,0 0.723164,0 1.446328,0 2.169492,0 0.09959,0 1.073833,0.0109 1.084746,0 0.06392,-0.0639 -0.06392,-0.20727 0,-0.27119 0.05544,-0.0554 0.706036,0.0538 0.813559,0 0.114342,-0.0572 0.156844,-0.21401 0.271187,-0.27119 0.107523,-0.0538 0.758118,0.0554 0.813559,0 0.06392,-0.0639 -0.06392,-0.20726 0,-0.27118 0.0742,-0.0742 0.93763,0.0736 1.084746,0 0.114342,-0.0572 0.156844,-0.21402 0.271186,-0.27119 0.08085,-0.0404 0.180791,0 0.271187,0 0.0904,0 0.18079,0 0.271186,0 0.0904,0 0.180791,0 0.271186,0 0.0904,0 0.207268,0.0639 0.271187,0 0.06392,-0.0639 -0.06392,-0.20727 0,-0.27119 0.01229,-0.0123 1.228068,0 1.355932,0 0.0904,0 0.207267,0.0639 0.271186,0 0.06392,-0.0639 -0.06392,-0.20726 0,-0.27118 0.06392,-0.0639 0.180791,0 0.271187,0 0.0904,0 0.180791,0 0.271186,0 0.0904,0 0.361582,0 0.271187,0 -0.180791,0 -0.723164,0 -0.542373,0 0.361582,0 0.723164,0 1.084746,0 0.0904,0 0.361582,0 0.271186,0 -0.180791,0 -0.361582,0 -0.542373,0"
     id="path4194"
     inkscape:connector-curvature="0"
     transform="matrix(0.87514115,0,0,0.82898806,6.0427237,11.504323)" />
  <g
     transform="matrix(0.51258122,0,0,0.48554877,54.639252,60.812942)"
     id="2">
    <path
       d="m 117.80366,117.35108 a 53.91015,4.6589018 0 1 1 -107.8202997,0 53.91015,4.6589018 0 1 1 107.8202997,0 z"
       transform="translate(1.2996963,3.4536055)"
       id="O"
       style="opacity:0.44299999;fill:url(#F)"
       inkscape:connector-curvature="0" />
    <path
       d="m 122.08898,64.625572 a 56.734098,55.918618 0 1 1 -113.4681952,0 56.734098,55.918618 0 1 1 113.4681952,0 z"
       transform="matrix(1.0119373,0,0,1.0266947,-2.1350421,-4.4029736)"
       id="P"
       style="fill:url(#D);stroke:#323232"
       inkscape:connector-curvature="0" />
    <path
       d="m 122.08898,64.625572 a 56.734098,55.918618 0 1 1 -113.4681952,0 56.734098,55.918618 0 1 1 113.4681952,0 z"
       transform="matrix(1.0119373,0,0,1.0266947,-2.1350421,-4.4029736)"
       id="Q"
       inkscape:connector-curvature="0"
       style="fill:none;stroke:#323232;stroke-width:3.92400002" />
    <path
       d="m 65.34375,12.21875 c -29.447616,0 -53.21875,23.463494 -53.21875,52.40625 0,28.942756 23.771134,52.40625 53.21875,52.40625 29.447616,0 53.25,-23.465862 53.25,-52.40625 0,-28.940388 -23.802384,-52.40625 -53.25,-52.40625 z"
       transform="matrix(1.0119373,0,0,1.0266947,-2.1350421,-4.4029736)"
       id="R"
       style="fill:none;stroke:url(#E);stroke-width:2.079"
       inkscape:connector-curvature="0" />
    <path
       d="m 63.911046,22.881773 a 1.666212,1.666212 0 0 0 -0.15625,0.0312 1.666212,1.666212 0 0 0 -1.3125,1 l -10.78125,25.03125 -27.125,2.53125 a 1.666212,1.666212 0 0 0 -0.9375,2.875 l 20.5,18.03125 -6,26.625 a 1.666212,1.666212 0 0 0 2.46875,1.781247 l 23.46875,-13.937497 23.4375,13.906247 a 1.666212,1.666212 0 0 0 2.46875,-1.781247 l -6,-26.625 20.437494,-18 a 1.666212,1.666212 0 0 0 -0.9375,-2.90625 l -27.124994,-2.5 -10.8125,-25.0625 a 1.666212,1.666212 0 0 0 -1.59375,-1 z"
       id="S"
       style="fill:url(#B)"
       inkscape:connector-curvature="0" />
  </g>
</svg>
